<?xml version="1.0" encoding="UTF-8"?>
<svg width="137px" height="148px" viewBox="0 0 137 148" version="1.1" xmlns="http://www.w3.org/2000/svg" xmlns:xlink="http://www.w3.org/1999/xlink">
    <!-- Generator: Sketch 42 (36781) - http://www.bohemiancoding.com/sketch -->
    <title>kutay logo1-01</title>
    <desc>Created with Sketch.</desc>
    <defs>
        <linearGradient x1="23.4386083%" y1="22.5499322%" x2="96.2504734%" y2="98.0336734%" id="linearGradient-1">
            <stop stop-color="#EF4135" offset="0%"></stop>
            <stop stop-color="#F58657" offset="48.98%"></stop>
            <stop stop-color="#FAAA5C" offset="100%"></stop>
        </linearGradient>
        <linearGradient x1="15.8261188%" y1="78.7178469%" x2="98.1280584%" y2="10.0200788%" id="linearGradient-2">
            <stop stop-color="#FAAA5C" offset="0%"></stop>
            <stop stop-color="#F58657" offset="51.02%"></stop>
            <stop stop-color="#EF4135" offset="100%"></stop>
        </linearGradient>
        <linearGradient x1="49.9549451%" y1="748.205747%" x2="49.9549451%" y2="-105.833333%" id="linearGradient-3">
            <stop stop-color="#FAAA5C" offset="0%"></stop>
            <stop stop-color="#F58657" offset="51.02%"></stop>
            <stop stop-color="#EF4135" offset="100%"></stop>
        </linearGradient>
        <linearGradient x1="85.7736361%" y1="85.7283154%" x2="14.4494873%" y2="14.4035842%" id="linearGradient-4">
            <stop stop-color="#F05349" offset="0%"></stop>
            <stop stop-color="#F58657" offset="48.98%"></stop>
            <stop stop-color="#FAAA64" offset="100%"></stop>
        </linearGradient>
        <linearGradient x1="49.9538462%" y1="1108.38085%" x2="49.9538462%" y2="-472.5%" id="linearGradient-5">
            <stop stop-color="#FAAA5C" offset="0%"></stop>
            <stop stop-color="#F58657" offset="51.02%"></stop>
            <stop stop-color="#EF4135" offset="100%"></stop>
        </linearGradient>
        <radialGradient cx="326.248913%" cy="119.943678%" fx="326.248913%" fy="119.943678%" r="646.753261%" id="radialGradient-6">
            <stop stop-color="#F05349" offset="0%"></stop>
            <stop stop-color="#F58657" offset="48.98%"></stop>
            <stop stop-color="#FAAA64" offset="100%"></stop>
        </radialGradient>
        <linearGradient x1="51.0337022%" y1="3.36213592%" x2="51.0337022%" y2="592.051456%" id="linearGradient-7">
            <stop stop-color="#EF4135" offset="0%"></stop>
            <stop stop-color="#F58657" offset="48.98%"></stop>
            <stop stop-color="#FAAA5C" offset="100%"></stop>
        </linearGradient>
        <linearGradient x1="49.4108696%" y1="-12.3445269%" x2="49.4108696%" y2="100.150835%" id="linearGradient-8">
            <stop stop-color="#EF4135" offset="0%"></stop>
            <stop stop-color="#F58657" offset="48.98%"></stop>
            <stop stop-color="#FAAA5C" offset="100%"></stop>
        </linearGradient>
    </defs>
    <g id="Welcome" stroke="none" stroke-width="1" fill="none" fill-rule="evenodd">
        <g id="home-copy-10" transform="translate(-652.000000, -156.000000)">
            <g id="kutay-logo1-01" transform="translate(652.000000, 156.000000)">
                <g id="Group">
                    <path d="M100.548214,144.118033 L25.6875,71.5737705 C21.5285714,66.9639344 21.5285714,59.9278689 26.1767857,55.8032787 L26.1767857,55.8032787 C30.5803571,51.6786885 37.675,52.1639344 41.8339286,56.7737705 L116.694643,129.07541 C120.853571,133.685246 120.853571,140.721311 116.205357,144.845902 L116.205357,144.845902 C111.801786,149.213115 104.707143,148.727869 100.548214,144.118033 Z" id="Shape" fill="url(#linearGradient-1)" fill-rule="nonzero"></path>
                    <path d="M90.2732143,64.295082 L41.8339286,98.747541 C37.4303571,103.114754 30.3357143,103.114754 25.9321429,98.747541 L25.9321429,98.747541 C21.5285714,94.3803279 21.5285714,87.3442623 25.9321429,82.9770492 L74.3714286,48.5245902 C79.9982143,44.4 85.8696429,44.157377 90.2732143,48.5245902 L90.2732143,48.5245902 C94.6767857,52.8918033 95.1660714,59.9278689 90.2732143,64.295082 Z" id="Shape" fill="url(#linearGradient-2)" fill-rule="nonzero"></path>
                    <path d="M22.2625,43.4295082 L22.2625,32.5114754 C11.7428571,43.6721311 5.38214286,58.4721311 5.38214286,74.9704918 C5.38214286,91.2262295 11.7428571,106.268852 22.2625,117.429508 L22.2625,43.4295082 L22.2625,43.4295082 Z" id="Shape"></path>
                    <path d="M44.525,52.4065574 L44.525,132.714754 C51.8642857,135.62623 59.9375,137.32459 68.2553571,137.32459 C102.994643,137.32459 131.128571,109.422951 131.128571,74.9704918 C131.128571,40.5180328 102.994643,12.6163934 68.2553571,12.6163934 C59.9375,12.6163934 51.8642857,14.3147541 44.525,17.2262295 L44.525,52.4065574 L44.525,52.4065574 Z" id="Shape"></path>
                    <path d="M44.525,16.9836066 L44.525,11.1606557 C36.2071429,14.3147541 28.6232143,18.9245902 22.2625,24.747541 L22.2625,32.2688525 C28.3785714,25.7180328 35.9625,20.3803279 44.525,16.9836066 Z" id="Shape" fill="url(#linearGradient-3)" fill-rule="nonzero"></path>
                    <path d="M68.2553571,7.03606557 C59.9375,7.03606557 51.8642857,8.49180328 44.525,11.4032787 C36.2071429,14.557377 28.6232143,19.1672131 22.2625,24.9901639 C8.5625,37.1213115 0,55.0754098 0,74.7278689 C0,94.6229508 8.5625,112.334426 22.2625,124.708197 L22.2625,117.186885 C11.7428571,106.02623 5.38214286,91.2262295 5.38214286,74.7278689 C5.38214286,58.4721311 11.7428571,43.4295082 22.2625,32.2688525 C28.3785714,25.7180328 35.9625,20.3803279 44.525,16.9836066 C51.8642857,14.0721311 59.9375,12.3737705 68.2553571,12.3737705 C102.994643,12.3737705 131.128571,40.2754098 131.128571,74.7278689 C131.128571,109.180328 102.994643,137.081967 68.2553571,137.081967 C59.9375,137.081967 51.8642857,135.383607 44.525,132.472131 L44.525,136.596721 C44.525,137.081967 44.525,137.567213 44.2803571,138.052459 C51.6196429,140.721311 59.6928571,142.419672 68.2553571,142.419672 C105.930357,142.419672 136.510714,112.091803 136.510714,74.7278689 C136.755357,37.3639344 106.175,7.03606557 68.2553571,7.03606557 Z" id="Shape" fill="url(#linearGradient-4)" fill-rule="nonzero"></path>
                    <path d="M31.5589286,53.6196721 C35.9625,53.3770492 40.3660714,52.8918033 44.525,52.4065574 L44.525,42.7016393 C44.0357143,42.7016393 43.5464286,42.7016393 43.0571429,42.9442623 C42.3232143,43.1868852 41.5892857,43.4295082 40.8553571,43.4295082 C34.7392857,43.6721311 28.6232143,43.6721311 22.2625,43.6721311 L22.2625,54.104918 C25.1982143,53.8622951 28.3785714,53.6196721 31.5589286,53.6196721 Z" id="Shape" fill="url(#linearGradient-5)" fill-rule="nonzero"></path>
                    <path d="M44.525,132.472131 C35.9625,129.07541 28.3785714,123.737705 22.2625,117.186885 L22.2625,124.708197 C28.6232143,130.531148 36.2071429,135.140984 44.525,138.295082 C44.525,137.809836 44.7696429,137.32459 44.7696429,136.839344 L44.7696429,132.472131 L44.525,132.472131 Z" id="Shape" fill="url(#radialGradient-6)" fill-rule="nonzero"></path>
                    <g transform="translate(22.017857, 0.000000)" id="Shape" fill-rule="nonzero">
                        <path d="M11.2535714,0 C5.1375,0 0,4.85245902 0,11.1606557 L0,24.9901639 C6.36071429,19.1672131 13.9446429,14.557377 22.2625,11.4032787 L22.2625,11.1606557 C22.5071429,4.85245902 17.6142857,0 11.2535714,0 Z" fill="url(#linearGradient-7)"></path>
                        <path d="M0.244642857,32.2688525 L0.244642857,43.1868852 L0.244642857,43.1868852 L0.244642857,116.944262 L0.244642857,124.465574 L0.244642857,136.596721 C0.244642857,142.662295 5.1375,147.757377 11.4982143,147.757377 C17.125,147.757377 21.7732143,143.632787 22.5071429,138.052459 C22.5071429,137.567213 22.7517857,137.081967 22.7517857,136.596721 L22.7517857,132.472131 L22.7517857,52.4065574 L22.7517857,52.4065574 L22.7517857,16.9836066 C13.9446429,20.3803279 6.36071429,25.7180328 0.244642857,32.2688525 Z" fill="url(#linearGradient-8)"></path>
                    </g>
                </g>
            </g>
        </g>
    </g>
</svg>